<svg width="560" height="625" viewBox="0 0 560 625" fill="none" xmlns="http://www.w3.org/2000/svg">
<path d="M429.729 208.534C403.172 235.741 383.858 247.104 383.858 247.104L388.687 253.986C388.687 253.986 415.243 232.7 429.729 216.216V208.534Z" fill="#F8F4F0"/>
<path d="M388.687 254.626C388.687 254.626 388.365 254.626 388.365 254.466L383.536 247.584C383.536 247.584 383.536 247.424 383.536 247.264C383.536 247.104 383.536 247.104 383.697 246.944C383.858 246.944 403.172 235.261 429.407 208.374C429.407 208.374 429.729 208.214 429.889 208.374C430.05 208.374 430.211 208.694 430.211 208.854V216.536C430.211 216.536 430.211 216.696 430.211 216.856C415.887 233.341 389.33 254.626 389.169 254.786C389.169 254.786 389.008 254.786 388.847 254.786L388.687 254.626ZM384.663 247.264L388.847 253.346C392.227 250.625 415.887 231.26 429.246 216.056V209.814C405.425 233.821 387.56 245.504 384.663 247.424V247.264Z" fill="#101720"/>
<path d="M363.418 215.896C336.862 243.103 317.548 254.466 317.548 254.466L322.376 261.348C322.376 261.348 348.933 240.062 363.418 223.578V215.896Z" fill="#F8F4F0"/>
<path d="M322.376 261.828C322.376 261.828 322.054 261.828 322.054 261.668L317.225 254.786C317.225 254.786 317.225 254.626 317.225 254.466C317.225 254.306 317.225 254.306 317.386 254.146C317.547 254.146 336.861 242.463 363.096 215.576C363.096 215.576 363.418 215.416 363.579 215.576C363.74 215.576 363.901 215.896 363.901 216.056V223.738C363.901 223.738 363.901 223.898 363.901 224.058C349.576 240.543 323.02 261.828 322.859 261.988C322.859 261.988 322.698 261.988 322.537 261.988L322.376 261.828ZM318.352 254.626L322.537 260.708C325.917 257.987 349.576 238.622 362.935 223.418V217.176C339.115 241.183 321.249 252.866 318.352 254.786V254.626Z" fill="#101720"/>
<path d="M463.045 336.568C463.045 336.568 437.454 309.681 421.52 267.91C411.702 241.983 405.425 210.455 411.38 176.046C426.831 86.1024 392.71 36.4895 392.71 36.4895L506.984 0.320068C588.424 82.7415 521.469 145.318 534.023 207.414C535.794 216.216 538.208 224.058 540.944 231.26C558.005 274.951 590.195 290.636 590.195 290.636L463.045 336.407V336.568Z" fill="#82C9D7"/>
<path d="M463.044 337.048H462.722C462.4 336.728 436.809 309.521 421.036 268.23C409.126 237.182 405.746 206.294 410.897 176.206C418.944 129.794 413.472 94.4246 407.356 72.8189C400.918 49.4529 392.388 36.9696 392.227 36.9696C392.227 36.9696 392.227 36.6495 392.227 36.4895C392.227 36.3295 392.388 36.1694 392.548 36.1694L506.822 0C506.983 0 507.144 0 507.305 0C531.448 24.3263 544.645 49.2928 547.704 76.0198C550.44 99.5459 545.289 121.632 540.3 143.077C535.149 165.323 530.16 186.288 534.506 207.414C536.115 215.736 538.529 223.738 541.427 231.26C558.165 274.311 590.194 290.316 590.516 290.476C590.677 290.476 590.838 290.796 590.838 290.956C590.838 291.116 590.838 291.276 590.516 291.436L463.205 337.208C463.205 337.208 463.205 337.208 463.044 337.208V337.048ZM393.353 36.6495C394.963 39.3702 402.366 51.5334 408.321 72.3388C414.438 93.9444 419.91 129.474 411.862 176.046C406.712 205.814 410.092 236.702 421.841 267.59C436.809 306.8 460.469 333.047 463.044 335.927L588.907 290.476C583.434 287.435 555.59 270.47 540.3 231.26C537.403 223.578 534.989 215.576 533.218 207.254C528.872 185.968 533.862 164.843 539.012 142.437C549.152 99.2258 559.614 54.5742 506.501 0.48013L393.192 36.3295L393.353 36.6495Z" fill="#101720"/>
<path d="M560.741 286.314L467.391 319.923C459.504 310.001 445.18 289.835 435.04 263.589C431.982 255.907 429.407 247.744 427.315 238.942C422.486 218.457 421.842 197.971 425.222 178.286C431.338 142.437 430.855 108.508 423.613 77.4601C420.394 63.6965 416.37 52.6537 412.829 44.6516L502.478 16.3242C517.768 33.1286 527.103 49.933 531.127 67.3775C536.921 92.1839 531.449 115.07 525.815 139.556C520.504 162.282 515.032 185.808 519.86 210.135C520.182 211.735 520.504 213.175 520.826 214.776C522.596 222.138 524.689 229.02 527.103 235.421C530.322 244.063 534.346 251.745 538.369 258.467C545.451 270.31 553.499 279.433 560.741 286.154V286.314Z" fill="#82C9D7"/>
<path d="M467.392 320.403C467.392 320.403 467.07 320.403 467.07 320.243C459.344 310.481 444.859 290.316 434.719 263.909C431.5 255.747 428.925 247.424 426.993 239.262C422.165 218.617 421.521 198.132 424.901 178.447C431.017 142.757 430.534 108.828 423.292 77.7803C420.716 66.0973 417.015 55.2145 412.508 45.1318V44.8117C412.508 44.8117 412.669 44.6517 412.83 44.4917L502.479 16.1643C502.639 16.1643 502.8 16.1643 502.961 16.1643C518.252 32.9687 527.587 49.773 531.771 67.5377C537.565 92.5042 532.093 115.55 526.46 139.876V140.677C521.149 163.243 515.676 186.449 520.505 210.295C520.827 211.735 520.988 213.016 521.31 214.296V214.936C523.08 221.818 525.172 228.86 527.748 235.581C530.806 243.423 534.347 250.945 539.014 258.627C545.291 269.03 552.695 278.312 561.225 286.315C561.225 286.315 561.386 286.635 561.225 286.795C561.064 286.955 561.225 287.115 560.903 287.115L467.553 320.724C467.553 320.724 467.553 320.724 467.392 320.724V320.403ZM413.635 45.1318C417.98 55.0544 421.682 66.0973 424.257 77.4602C431.5 108.668 431.983 142.597 425.867 178.447C422.487 197.972 423.131 218.297 427.959 238.942C429.89 247.104 432.466 255.427 435.524 263.429C445.663 289.515 459.827 309.521 467.553 319.283L559.776 285.994C551.568 278.152 544.164 268.87 538.048 258.627C533.542 250.945 529.84 243.423 526.782 235.421C524.207 228.7 522.114 221.658 520.505 214.776V214.136C520.022 212.855 519.861 211.575 519.539 210.135C514.711 186.128 520.022 162.762 525.333 140.197V139.396C531.288 115.23 536.6 92.3441 530.806 67.5377C526.782 50.0931 517.447 33.4488 502.479 16.8045L413.635 44.9718V45.1318Z" fill="#101720"/>
<path d="M590.195 290.796L462.884 336.567C462.884 336.567 437.293 309.681 421.359 267.91L435.04 263.589C445.18 289.835 459.504 310.001 467.391 319.923L560.741 286.314C553.499 279.433 545.612 270.31 538.369 258.627C534.346 251.745 530.483 244.223 527.103 235.581L540.784 231.42C557.844 275.272 590.195 290.796 590.195 290.796Z" fill="#F2CDAC"/>
<path d="M463.046 337.048H462.724C462.402 336.728 436.972 309.681 421.038 268.23C421.038 268.07 421.038 267.75 421.36 267.59L435.041 263.429C435.363 263.429 435.524 263.429 435.685 263.749C445.824 289.835 459.988 309.841 467.713 319.603L559.937 286.314C551.729 278.472 544.325 269.19 538.209 258.947C533.703 251.265 530.001 243.743 526.943 235.741V235.421C526.943 235.421 527.104 235.261 527.265 235.101L540.945 230.94C541.267 230.94 541.428 230.94 541.589 231.26C550.441 253.826 563.317 268.71 572.491 277.192C582.47 286.474 590.518 290.316 590.679 290.476C590.84 290.476 591.001 290.796 591.001 290.956C591.001 291.116 591.001 291.276 590.679 291.436L463.368 337.208C463.368 337.208 463.368 337.208 463.207 337.208L463.046 337.048ZM422.004 268.07C436.972 306.96 460.632 333.207 463.046 335.927L588.908 290.636C586.494 289.355 579.573 285.194 571.526 277.832C562.191 269.35 549.315 254.466 540.463 231.9L527.748 235.741C530.645 243.423 534.346 250.785 538.692 258.307C544.969 268.71 552.373 277.992 560.903 285.994C560.903 285.994 561.064 286.314 560.903 286.474C560.742 286.635 560.903 286.795 560.581 286.795L467.231 320.403C467.07 320.403 466.748 320.403 466.748 320.243C459.022 310.641 444.698 290.476 434.558 264.229L421.843 268.07H422.004Z" fill="#101720"/>
<path d="M475.759 217.177C445.34 224.218 420.232 212.055 419.427 190.129C418.622 168.204 442.764 144.838 473.184 137.796C503.603 130.754 528.711 142.917 529.516 164.843C530.321 186.769 506.178 210.135 475.759 217.177Z" fill="#F2CDAC"/>
<path d="M459.182 219.577C447.755 219.577 437.454 216.696 430.051 211.095C423.13 205.813 419.267 198.612 419.106 190.129C418.301 168.044 442.605 144.357 473.185 137.316C491.211 133.155 508.272 135.715 519.056 143.877C525.976 149.159 529.839 156.361 530 164.843C530.805 186.929 506.502 210.615 475.921 217.657C470.127 218.937 464.494 219.577 459.182 219.577ZM489.924 136.355C484.612 136.355 478.979 136.996 473.346 138.276C443.248 145.158 419.267 168.364 420.072 190.129C420.394 198.291 424.095 205.173 430.694 210.295C441.156 218.297 458.056 220.697 475.76 216.696C505.858 209.814 529.839 186.608 529.034 164.843C528.713 156.681 525.011 149.799 518.412 144.678C511.169 139.236 501.19 136.355 489.924 136.355Z" fill="#101720"/>
<path d="M519.056 57.6151C518.895 57.6151 518.734 57.6151 518.573 57.295C511.813 37.7699 494.591 20.4854 494.43 20.3254C494.269 20.1653 494.269 19.8453 494.43 19.6852C494.591 19.5252 494.913 19.5252 495.074 19.6852C495.235 19.8453 512.618 37.2898 519.377 56.9749C519.377 57.295 519.377 57.455 519.056 57.6151C519.056 57.6151 519.056 57.6151 518.895 57.6151H519.056Z" fill="#101720"/>
<path d="M508.433 61.1358C508.272 61.1358 508.111 61.1357 507.95 60.8157C501.673 40.3303 485.417 23.3659 485.256 23.0458C485.095 22.8858 485.095 22.5657 485.256 22.4057C485.417 22.2456 485.739 22.2456 485.9 22.4057C486.061 22.5657 502.478 39.8502 508.755 60.4956C508.755 60.8157 508.755 60.9757 508.433 61.1358Z" fill="#101720"/>
<path d="M497.811 64.6567C497.65 64.6567 497.489 64.6567 497.328 64.3366C491.373 42.891 476.244 26.0867 476.083 25.9266C475.922 25.7666 475.922 25.4465 476.083 25.2865C476.244 25.1264 476.565 25.2865 476.726 25.2865C476.887 25.4465 492.178 42.4109 498.294 64.0165C498.294 64.3366 498.294 64.4967 497.972 64.6567H497.811Z" fill="#101720"/>
<path d="M487.026 68.1776C486.865 68.1776 486.543 68.1776 486.543 67.8575C480.91 45.4517 466.746 28.8074 466.585 28.6473C466.424 28.4873 466.585 28.1672 466.585 28.0072C466.746 27.8471 467.068 28.0072 467.229 28.0072C467.229 28.0072 481.714 44.9716 487.348 67.5374C487.348 67.8575 487.348 68.0176 487.026 68.1776Z" fill="#101720"/>
<path d="M476.404 71.6986C476.243 71.6986 475.921 71.6986 475.921 71.3785C470.77 48.0124 457.573 31.6882 457.412 31.5281C457.251 31.3681 457.412 31.048 457.412 30.8879C457.573 30.8879 457.894 30.8879 458.055 30.8879C458.055 30.8879 471.575 47.5323 476.726 71.2184C476.726 71.5385 476.726 71.6986 476.404 71.8586V71.6986Z" fill="#101720"/>
<path d="M465.781 75.2195C465.62 75.2195 465.298 75.2196 465.298 74.8995C460.47 50.5731 448.398 34.4089 448.238 34.2489C448.077 34.0889 448.238 33.7688 448.238 33.6087C448.238 33.4487 448.72 33.6087 448.881 33.6087C448.881 33.6087 461.274 50.093 466.103 74.5794C466.103 74.8995 466.103 75.0595 465.781 75.0595V75.2195Z" fill="#101720"/>
<path d="M454.998 78.7406C454.837 78.7406 454.516 78.7406 454.516 78.4205C450.009 53.1339 438.904 37.2898 438.743 37.1298C438.582 36.9697 438.743 36.6496 438.743 36.4896C438.743 36.3295 439.225 36.4896 439.386 36.4896C439.386 36.4896 450.814 52.8138 455.32 78.2604C455.32 78.5805 455.32 78.7406 454.998 78.7406Z" fill="#101720"/>
<path d="M444.376 82.2614C444.215 82.2614 443.893 82.1014 443.893 81.9413C439.869 55.6945 429.729 40.0104 429.568 39.8504C429.568 39.6903 429.568 39.3702 429.568 39.2102C429.729 39.2102 430.051 39.2102 430.212 39.2102C430.212 39.2102 440.674 55.2144 444.698 81.6212C444.698 81.9413 444.698 82.1014 444.376 82.1014V82.2614Z" fill="#101720"/>
<path d="M433.753 85.7823C433.592 85.7823 433.27 85.6222 433.27 85.3022C429.569 58.0951 420.395 42.571 420.395 42.411C420.395 42.251 420.395 41.9309 420.555 41.7708C420.716 41.6108 421.038 41.7708 421.199 41.7708C421.199 41.7708 430.534 57.615 434.236 84.9821C434.236 85.3022 434.236 85.4622 433.753 85.4622V85.7823Z" fill="#101720"/>
<path d="M532.736 199.252C555.269 202.933 545.451 228.54 506.984 256.387L517.124 260.548C517.124 260.548 534.829 248.545 548.187 229.82C561.546 211.095 553.016 194.451 532.253 192.37L532.575 199.092L532.736 199.252Z" fill="#F8F4F0"/>
<path d="M517.124 261.028C517.124 261.028 517.124 261.028 516.963 261.028L506.824 256.867C506.663 256.867 506.502 256.707 506.502 256.547C506.502 256.387 506.502 256.227 506.663 256.067C531.932 237.822 546.578 218.937 543.842 208.054C542.876 203.733 538.853 200.852 532.576 199.892C532.415 199.892 532.254 199.732 532.254 199.412L531.932 192.69V192.37C531.932 192.37 532.093 192.37 532.254 192.37C542.393 193.33 550.119 197.972 553.338 205.013C556.718 212.375 554.947 221.498 548.509 230.62C535.312 249.025 517.446 261.348 517.285 261.348C517.285 261.348 517.124 261.348 516.963 261.348L517.124 261.028ZM507.95 256.227L517.124 260.068C519.217 258.627 535.473 246.944 547.866 229.66C554.143 220.858 555.913 212.215 552.694 205.013C549.636 198.452 542.554 193.971 533.058 193.01L533.38 198.772C539.818 199.892 543.842 202.933 544.969 207.734C547.705 219.097 533.541 237.662 508.111 256.227H507.95Z" fill="#101720"/>
<path d="M403.817 103.867C375.168 118.271 363.901 130.914 363.901 130.914L369.857 135.715L403.817 103.867Z" fill="#F8F4F0"/>
<path d="M370.017 136.195C370.017 136.195 369.856 136.195 369.695 136.195L363.74 131.394C363.74 131.394 363.579 131.234 363.579 131.074C363.579 130.914 363.579 130.754 363.579 130.754C363.579 130.754 375.167 117.791 403.655 103.707C403.816 103.707 404.138 103.707 404.299 103.867C404.299 104.027 404.299 104.347 404.299 104.507L370.339 136.356C370.339 136.356 370.178 136.356 370.017 136.356V136.195ZM364.706 130.754L369.856 134.915L401.08 105.788C377.582 117.951 366.637 128.674 364.706 130.754Z" fill="#101720"/>
<path d="M414.759 274.471C388.203 301.678 368.889 313.041 368.889 313.041L373.717 319.923C373.717 319.923 400.274 298.638 414.759 282.153V274.471Z" fill="#F8F4F0"/>
<path d="M373.718 320.403C373.718 320.403 373.396 320.403 373.396 320.243L368.568 313.361C368.568 313.361 368.568 313.201 368.568 313.041C368.568 312.881 368.568 312.881 368.729 312.721C368.889 312.721 388.203 301.038 414.438 274.151C414.438 274.151 414.76 273.991 414.921 274.151C415.082 274.151 415.243 274.471 415.243 274.631V282.313C415.243 282.313 415.243 282.473 415.243 282.633C400.918 299.118 374.362 320.243 374.201 320.563C374.201 320.563 374.04 320.563 373.879 320.563L373.718 320.403ZM369.694 313.201L373.879 319.283C377.259 316.562 400.918 297.197 414.277 281.993V275.752C390.457 299.758 372.591 311.441 369.694 313.361V313.201Z" fill="#101720"/>
<path d="M503.605 273.831C477.048 301.038 457.734 312.401 457.734 312.401L462.563 319.283C462.563 319.283 489.119 297.997 503.605 281.513V273.831Z" fill="#F8F4F0"/>
<path d="M462.562 319.763C462.562 319.763 462.24 319.763 462.24 319.603L457.411 312.721C457.411 312.721 457.411 312.561 457.411 312.401C457.411 312.241 457.411 312.241 457.572 312.081C457.733 312.081 477.047 300.398 503.282 273.511C503.282 273.511 503.604 273.351 503.765 273.511C503.925 273.511 504.086 273.831 504.086 273.991V281.673C504.086 281.673 504.086 281.833 504.086 281.993C489.762 298.478 463.205 319.603 463.044 319.923C463.044 319.923 462.883 319.923 462.722 319.923L462.562 319.763ZM458.538 312.561L462.722 318.643C466.102 315.922 489.762 296.557 503.121 281.353V275.111C479.3 299.118 461.435 310.801 458.538 312.721V312.561Z" fill="#101720"/>
<path d="M571.526 268.23C580.539 276.872 569.272 301.999 554.626 319.923L560.742 324.884C560.742 324.884 588.264 297.197 577.32 268.23H571.526Z" fill="#F8F4F0"/>
<path d="M560.741 325.365C560.741 325.365 560.58 325.365 560.419 325.365L554.303 320.403C554.142 320.243 554.142 319.923 554.303 319.763C569.271 301.678 579.894 276.872 571.203 268.71C571.203 268.71 571.042 268.39 571.203 268.23C571.203 268.07 571.525 267.91 571.686 267.91H577.48C577.641 267.91 577.802 267.91 577.963 268.23C588.907 297.197 561.546 325.205 561.224 325.365C561.224 325.365 561.063 325.365 560.902 325.365H560.741ZM555.269 319.923L560.741 324.404C563.638 321.204 586.815 295.597 576.997 268.87H572.651C577.158 274.311 575.066 283.754 572.49 290.956C569.11 300.238 562.833 310.801 555.269 320.083V319.923Z" fill="#101720"/>
<path d="M156.114 171.565L154.182 195.411L179.934 192.21L178.325 179.887C182.67 179.247 190.074 177.486 193.615 172.685C198.765 165.803 195.385 152.04 195.385 152.04C195.385 152.04 200.697 150.599 199.892 147.399C198.926 144.358 194.581 144.838 194.581 144.838C192.488 137.156 186.855 122.272 186.855 122.272L149.837 129.954C149.837 129.954 150.641 135.715 151.607 143.237C152.09 146.278 147.422 149.959 147.905 153.32C148.388 156.521 154.021 159.242 154.504 161.962C155.148 166.123 155.792 169.484 156.275 171.565H156.114Z" fill="#FF7E6D"/>
<mask id="mask0_320_4909" style="mask-type:luminance" maskUnits="userSpaceOnUse" x="147" y="122" width="53" height="74">
<path d="M156.118 171.725L154.186 195.411L179.938 192.21L178.329 179.887C182.674 179.247 190.078 177.486 193.619 172.685C198.769 165.803 195.389 151.88 195.389 151.88C195.389 151.88 200.7 150.439 199.896 147.238C198.93 144.198 194.584 144.678 194.584 144.678C192.492 136.996 186.859 122.272 186.859 122.272L149.841 129.954C149.841 129.954 150.645 135.715 151.611 143.237C152.094 146.278 147.426 149.959 147.909 153.32C148.392 156.521 154.025 159.242 154.508 162.122C155.152 166.283 155.796 169.644 156.278 171.725H156.118Z" fill="white"/>
</mask>
<g mask="url(#mask0_320_4909)">
<path d="M193.618 172.685C188.306 176.846 172.694 173.965 167.705 168.044C162.715 162.122 169.314 156.041 168.027 149.319C166.739 142.597 163.681 133.635 163.681 133.635L146.299 150.92L155.634 178.287C155.634 178.287 168.51 181.487 171.89 186.449C175.269 191.41 171.246 198.292 171.246 198.292L191.847 190.61L193.618 172.685Z" fill="#008FB1"/>
</g>
<path d="M154.026 195.891C154.026 195.891 153.865 195.891 153.704 195.891C153.704 195.891 153.543 195.731 153.704 195.571L155.635 171.885C155.313 169.964 154.67 166.764 153.865 162.282C153.704 161.002 152.255 159.722 150.968 158.441C149.358 157.001 147.749 155.401 147.427 153.48C147.105 151.72 148.232 149.799 149.358 147.879C150.324 146.278 151.29 144.678 151.129 143.397C150.163 136.036 149.358 130.114 149.358 130.114C149.358 129.794 149.358 129.634 149.68 129.634L186.698 121.952C186.859 121.952 187.181 121.952 187.181 122.272C187.181 122.272 192.654 136.836 194.907 144.358C196.033 144.358 199.413 144.358 200.218 147.238C200.379 148.039 200.218 148.679 200.057 149.479C199.091 151.079 196.999 152.04 196.033 152.36C196.516 154.76 198.931 166.604 194.102 173.005C190.561 177.646 183.318 179.567 178.973 180.207L180.421 192.05V192.37C180.421 192.37 180.26 192.53 180.099 192.53L154.348 195.731L154.026 195.891ZM150.324 130.434C150.485 131.874 151.29 136.996 152.094 143.237C152.255 144.838 151.29 146.598 150.163 148.359C149.197 149.959 148.071 151.72 148.392 153.32C148.553 154.76 150.163 156.201 151.611 157.641C153.221 159.082 154.669 160.522 154.83 161.962C155.474 166.443 156.118 169.644 156.601 171.565L154.67 194.931L179.456 191.89L178.007 180.047C178.007 180.047 178.007 180.047 178.007 179.887C178.007 179.727 178.168 179.567 178.329 179.407C182.514 178.767 189.756 177.166 193.297 172.525C198.287 165.803 195.068 152.36 195.068 152.2C195.068 151.88 195.068 151.72 195.39 151.56C195.39 151.56 198.448 150.759 199.413 148.999C199.735 148.519 199.735 148.039 199.574 147.559C198.77 144.998 194.907 145.318 194.907 145.318C194.746 145.318 194.424 145.318 194.424 144.998C192.493 138.116 187.664 125.313 186.859 122.912L150.646 130.434H150.324Z" fill="#101720"/>
<path d="M190.237 142.597C190.237 142.597 187.822 139.236 183.316 140.517C178.809 141.797 178.487 144.838 178.487 144.838C178.487 144.838 180.902 148.199 185.086 147.238C189.271 146.278 190.237 142.597 190.237 142.597Z" fill="#F8F4F0"/>
<mask id="mask1_320_4909" style="mask-type:luminance" maskUnits="userSpaceOnUse" x="178" y="140" width="13" height="8">
<path d="M190.237 142.597C190.237 142.597 187.822 139.236 183.316 140.517C178.809 141.797 178.487 144.838 178.487 144.838C178.487 144.838 180.902 148.199 185.086 147.238C189.271 146.278 190.237 142.757 190.237 142.757V142.597Z" fill="white"/>
</mask>
<g mask="url(#mask1_320_4909)">
<path d="M186.213 147.239C187.902 147.239 189.271 145.877 189.271 144.198C189.271 142.518 187.902 141.157 186.213 141.157C184.525 141.157 183.155 142.518 183.155 144.198C183.155 145.877 184.525 147.239 186.213 147.239Z" fill="#101720"/>
</g>
<path d="M185.248 164.043C184.765 164.043 184.282 164.043 183.96 163.723C182.673 163.082 181.868 161.802 181.707 160.042C181.707 159.722 181.868 159.562 182.19 159.562C182.512 159.562 182.673 159.722 182.673 160.042C182.673 161.482 183.317 162.442 184.282 162.922C185.087 163.242 186.053 163.082 187.018 162.442C187.179 162.282 187.501 162.442 187.662 162.442C187.823 162.442 187.662 162.922 187.662 163.082C187.018 163.563 186.214 163.883 185.409 163.883L185.248 164.043Z" fill="#101720"/>
<path d="M178.165 140.357C178.165 140.357 178.165 140.357 178.004 140.357C177.843 140.357 177.682 139.876 177.843 139.716C178.648 138.116 180.418 136.996 182.672 136.356C185.086 135.715 187.5 136.196 189.109 137.476C189.27 137.636 189.431 137.956 189.109 138.116C188.788 138.276 188.627 138.436 188.466 138.116C187.017 137.156 184.925 136.676 182.832 137.156C180.901 137.636 179.292 138.596 178.648 139.876C178.648 140.037 178.326 140.197 178.165 140.197V140.357Z" fill="#101720"/>
<path d="M183.318 140.357C183.318 140.357 181.065 140.837 179.778 142.277C178.49 143.718 178.007 144.998 177.524 145.318L178.329 145.958C178.329 145.958 180.26 141.477 183.479 140.357H183.318Z" fill="#101720"/>
<path d="M137.93 154.92C138.574 156.041 139.378 157.001 140.022 158.121C148.713 171.245 155.151 181.807 155.151 181.807L157.244 161.162C154.508 161.322 147.587 155.721 151.45 149.319C154.669 144.037 160.302 151.239 162.072 152.36C162.394 152.52 162.716 152.68 163.038 152.68C163.36 152.68 163.521 152.04 163.521 151.719C164.325 146.758 163.843 141.637 162.072 136.836C164.808 136.516 167.705 136.195 170.281 135.235C172.856 134.275 175.27 132.514 176.397 129.954C176.397 129.794 176.558 129.474 176.719 129.314C176.719 129.314 187.019 132.835 192.17 125.473C197.32 117.951 190.882 115.23 190.882 115.23C190.882 115.23 180.742 104.507 168.671 105.948C121.191 111.869 142.114 126.913 142.114 126.913C142.114 126.913 127.468 139.876 137.769 154.92H137.93Z" fill="#82C9D7"/>
<path d="M155.311 182.288C155.15 182.288 154.989 182.288 154.828 182.128C154.828 182.128 148.229 171.405 139.699 158.441C139.216 157.641 138.733 156.841 138.089 156.201L137.446 155.401C128.111 141.477 139.216 129.474 141.469 127.073C140.021 125.953 136.319 122.432 137.285 118.111C138.733 112.189 149.356 108.028 168.67 105.628C180.258 104.187 190.398 113.95 191.203 114.91C191.686 115.07 193.778 116.35 194.583 118.751C195.226 120.832 194.583 123.232 192.651 125.953C187.823 132.835 178.971 130.754 177.039 130.114V130.434C175.752 132.835 173.498 134.915 170.44 136.036C167.865 136.996 165.29 137.316 162.715 137.476C164.163 142.117 164.646 147.078 163.841 152.04C163.841 152.36 163.68 153.16 163.037 153.32C162.554 153.48 161.91 153.32 161.588 153C161.266 152.84 160.622 152.2 159.979 151.56C158.369 150.119 155.794 147.719 153.863 148.039C153.058 148.039 152.253 148.679 151.609 149.799C149.839 152.84 150.644 155.401 151.609 157.161C153.219 159.722 155.794 161.002 156.921 161.002H157.242C157.242 161.002 157.242 161.162 157.242 161.322L155.15 181.967C155.15 182.128 154.989 182.288 154.828 182.448L155.311 182.288ZM171.084 106.268C170.279 106.268 169.636 106.268 168.831 106.268C145.332 109.149 139.216 114.27 138.25 118.111C137.124 122.432 142.435 126.273 142.435 126.433C142.435 126.433 142.596 126.593 142.596 126.753C142.596 126.913 142.596 127.073 142.435 127.073C142.435 127.073 138.894 130.274 136.48 135.235C133.422 141.797 133.905 148.359 138.089 154.44L138.733 155.241C139.216 156.041 139.699 156.841 140.343 157.481C147.264 167.884 152.897 176.846 154.828 179.887L156.599 161.162C154.989 161.002 152.414 159.402 150.965 157.001C149.356 154.28 149.195 151.4 150.965 148.679C151.77 147.399 152.736 146.758 153.863 146.598C156.277 146.278 159.013 148.839 160.783 150.439C161.427 151.079 161.91 151.4 162.232 151.72C162.232 151.72 162.715 152.04 162.715 151.88C162.876 151.88 162.876 151.4 163.037 151.239C163.68 146.438 163.358 141.317 161.749 136.676C161.749 136.676 161.749 136.356 161.749 136.196C161.749 136.036 161.91 136.036 162.071 136.036C164.646 135.715 167.543 135.555 170.118 134.595C172.854 133.635 175.108 131.714 176.074 129.634C176.074 129.314 176.395 128.994 176.556 128.834C176.556 128.674 176.878 128.674 177.039 128.834C177.2 128.994 187.018 132.195 191.847 125.153C193.456 122.752 194.1 120.672 193.617 118.751C192.973 116.51 190.72 115.55 190.72 115.55C190.72 115.55 190.72 115.55 190.559 115.55C190.559 115.55 181.707 106.268 171.084 106.268Z" fill="#101720"/>
<path d="M177.041 129.794H176.88C176.719 129.794 176.558 129.314 176.719 129.154C178.489 125.953 178.489 123.872 178.489 123.872C178.489 123.552 178.65 123.392 178.972 123.392C179.294 123.392 179.455 123.552 179.455 123.872C179.455 124.192 179.455 126.273 177.685 129.634C177.685 129.794 177.363 129.954 177.202 129.954L177.041 129.794Z" fill="#101720"/>
<path d="M140.02 158.121C148.711 171.245 155.149 181.807 155.149 181.807L157.241 161.162C154.505 161.322 147.584 155.721 151.447 149.319C154.666 144.038 160.299 151.239 162.07 152.36C162.391 152.52 162.713 152.68 163.035 152.68C163.357 152.68 163.518 152.04 163.518 151.72C164.323 146.758 163.84 141.637 162.07 136.836C156.436 137.476 143.721 137.476 143.721 137.476C143.721 137.476 145.492 141.477 146.618 147.398C147.423 151.72 142.595 156.041 140.02 158.121Z" fill="#101720"/>
<path d="M155.313 182.288C155.152 182.288 154.991 182.288 154.83 182.127C154.83 182.127 148.231 171.405 139.701 158.441C139.701 158.281 139.701 157.961 139.701 157.801C141.954 156.041 146.944 151.72 146.139 147.558C145.012 141.797 143.242 137.796 143.242 137.796C143.242 137.796 143.242 137.476 143.242 137.316C143.242 137.156 143.403 137.156 143.564 137.156C143.564 137.156 156.44 137.156 161.912 136.516C162.073 136.516 162.395 136.516 162.395 136.836C164.005 141.637 164.487 146.918 163.844 151.88C163.844 152.2 163.683 153 163.039 153.16C162.556 153.32 161.912 153.16 161.59 152.84C161.268 152.68 160.625 152.04 159.981 151.4C158.371 149.959 155.796 147.559 153.865 147.879C153.06 147.879 152.255 148.519 151.611 149.639C149.841 152.68 150.646 155.24 151.611 157.001C153.221 159.562 155.796 160.842 156.923 160.842H157.245C157.245 160.842 157.245 161.002 157.245 161.162L155.152 181.807C155.152 181.967 154.991 182.127 154.83 182.288H155.313ZM140.667 158.281C147.427 168.524 152.899 177.326 154.83 180.367L156.601 161.642C154.991 161.482 152.416 159.882 150.968 157.481C149.358 154.76 149.197 151.88 150.968 149.159C151.772 147.879 152.738 147.238 153.865 147.078C156.279 146.758 159.015 149.319 160.786 150.919C161.429 151.56 161.912 151.88 162.234 152.2C162.234 152.2 162.717 152.52 162.717 152.36C162.878 152.36 162.878 151.88 163.039 151.72C163.683 146.918 163.361 142.117 161.751 137.476C156.762 137.956 147.105 138.116 144.369 138.116C144.852 139.556 146.139 142.917 147.105 147.398C147.91 151.72 143.564 155.881 140.667 158.281Z" fill="#101720"/>
<path d="M174.947 180.687C167.543 180.687 163.037 176.206 162.876 176.046C162.715 175.886 162.715 175.566 162.876 175.406C163.037 175.246 163.359 175.246 163.52 175.406C163.52 175.406 169.314 181.007 178.327 179.407C178.649 179.407 178.81 179.407 178.971 179.727C179.132 180.047 178.971 180.207 178.649 180.367C177.361 180.527 176.235 180.687 175.108 180.687H174.947Z" fill="#101720"/>
<path d="M158.852 154.76C158.691 154.76 158.53 154.76 158.369 154.6C157.082 152.36 155.472 151.719 154.829 151.399C154.185 151.239 153.541 151.399 153.058 151.559C152.897 151.559 152.575 151.559 152.414 151.559C152.253 151.559 152.414 151.079 152.414 150.919C153.058 150.599 154.024 150.439 154.829 150.599C156.438 150.919 157.887 152.2 159.013 154.12C159.013 154.28 159.013 154.6 158.852 154.76Z" fill="#101720"/>
<path d="M155.632 157.161C155.632 157.161 155.31 157.161 155.31 157.001C153.379 154.6 154.505 150.919 154.505 150.759C154.505 150.439 154.827 150.439 155.149 150.439C155.471 150.439 155.471 150.759 155.471 151.079C155.471 151.079 154.505 154.44 156.115 156.361C156.276 156.521 156.115 156.841 156.115 157.001C156.115 157.001 155.954 157.001 155.793 157.001L155.632 157.161Z" fill="#101720"/>
<path d="M196.838 112.349L191.044 115.23C192.975 114.27 194.907 113.31 196.838 112.349Z" fill="#F2CDAC"/>
<path d="M191.041 115.55C190.88 115.55 190.72 115.55 190.559 115.23C190.559 115.07 190.559 114.75 190.72 114.59C192.49 113.63 194.582 112.669 196.514 111.709C196.675 111.709 196.997 111.709 197.157 111.869C197.157 112.029 197.158 112.349 196.997 112.509L191.202 115.39C191.202 115.39 191.202 115.39 191.041 115.39V115.55Z" fill="#101720"/>
<path d="M189.11 128.673C189.27 128.353 192.65 123.872 193.455 120.031C193.938 117.791 192.007 115.87 189.753 116.03C188.305 116.19 186.534 116.67 185.086 117.471C184.764 117.471 184.442 117.791 184.12 117.791L183.315 118.111C181.545 118.911 180.257 119.711 179.935 119.871C158.368 131.234 134.065 145.158 134.065 145.158C134.065 145.158 124.086 124.032 137.284 111.069C146.941 101.626 161.748 97.9455 171.566 98.7457C175.268 99.0658 178.326 100.026 179.935 101.466C183.154 104.187 187.339 109.629 190.558 114.27L192.329 113.47L196.352 111.549C201.825 108.988 206.975 107.068 209.872 107.868C221.46 111.229 189.753 128.193 188.788 128.513L189.11 128.673Z" fill="#F2CDAC"/>
<path d="M134.066 145.638C134.066 145.638 133.906 145.638 133.745 145.318C133.745 145.158 123.766 123.712 136.964 110.749C146.942 100.986 161.911 97.4655 171.568 98.2657C175.43 98.5858 178.488 99.546 180.259 101.146C182.834 103.387 186.375 107.548 190.882 113.63L196.354 110.909C203.275 107.708 207.781 106.428 210.356 107.228C212.127 107.708 213.093 108.668 213.253 109.789C213.897 115.87 190.399 128.353 189.433 128.834C189.272 128.834 188.95 128.834 188.789 128.834C188.628 128.834 188.628 128.353 188.789 128.193C189.433 127.393 192.33 123.392 193.135 119.711C193.296 118.751 193.135 117.951 192.491 117.151C191.847 116.51 191.042 116.19 189.916 116.19C188.628 116.19 187.019 116.83 185.409 117.471C185.248 117.471 185.087 117.631 184.926 117.631L183.8 118.111C182.19 118.911 180.903 119.711 180.581 119.871C159.335 131.234 135.032 144.998 134.71 145.158H134.549L134.066 145.638ZM168.992 99.2259C159.496 99.2259 146.621 102.907 137.768 111.549C126.019 123.072 133.101 141.317 134.549 144.518C138.09 142.597 160.301 129.954 179.937 119.551C180.42 119.231 181.707 118.431 183.317 117.631L184.444 117.151C184.605 117.151 184.765 116.991 185.087 116.991C186.375 116.51 188.145 115.71 189.916 115.55C191.203 115.55 192.33 115.87 193.296 116.83C194.101 117.791 194.422 118.911 194.261 120.191C193.779 122.752 192.169 125.633 191.042 127.393C198.285 123.392 212.932 114.43 212.61 110.269C212.61 109.469 211.805 108.828 210.356 108.508C208.103 107.868 203.757 108.988 197.159 112.189L191.364 115.07C191.203 115.07 190.882 115.07 190.721 115.07C186.214 108.828 182.673 104.667 180.098 102.427C178.488 100.986 175.591 100.026 171.89 99.8661C171.085 99.8661 170.119 99.8661 169.314 99.8661L168.992 99.2259Z" fill="#101720"/>
<path d="M180.741 120.031C180.58 120.031 180.419 120.031 180.259 119.711C180.259 119.551 180.259 119.231 180.42 119.071L190.398 113.95C190.559 113.95 190.881 113.95 191.042 114.11C191.042 114.27 191.042 114.59 190.881 114.75L180.902 119.871C180.902 119.871 180.902 119.871 180.741 119.871V120.031Z" fill="#101720"/>
<path d="M131.171 135.876C134.39 134.435 136.16 139.236 137.609 143.237L134.068 145.158C134.068 145.158 131.654 139.397 131.171 135.876Z" fill="#101720"/>
<path d="M134.067 145.638C134.067 145.638 134.067 145.638 133.906 145.638C133.906 145.638 133.745 145.638 133.584 145.318C133.584 145.158 131.17 139.556 130.687 135.875C130.687 135.715 130.687 135.395 131.009 135.395C131.814 135.075 132.78 135.075 133.423 135.395C135.677 136.356 136.964 140.037 138.091 143.077C138.091 143.237 138.091 143.557 137.93 143.717L134.389 145.638H134.228H134.067ZM131.814 136.196C132.297 139.076 133.906 143.077 134.389 144.518L137.125 142.917C136.16 140.357 134.872 136.996 133.101 136.196C132.619 136.036 132.136 136.036 131.653 136.196H131.814Z" fill="#101720"/>
<path d="M140.665 142.117C140.504 142.117 140.343 142.117 140.182 141.797C138.734 137.476 136.641 134.755 134.388 133.795C132.457 132.995 131.008 133.795 131.008 133.795C130.847 133.795 130.525 133.795 130.364 133.635C130.364 133.475 130.364 133.155 130.525 132.995C130.525 132.995 132.296 132.034 134.71 132.995C137.285 133.955 139.377 136.836 140.987 141.637C140.987 141.957 140.987 142.117 140.665 142.277C140.665 142.277 140.665 142.277 140.504 142.277L140.665 142.117Z" fill="#101720"/>
<path d="M192.49 113.47L184.282 117.631L183.477 117.951L171.567 98.7458C175.268 99.0659 178.327 100.026 179.936 101.467C183.155 104.187 187.34 109.629 190.559 114.27L192.329 113.47H192.49Z" fill="#F8F4F0"/>
<path d="M183.478 118.591C183.317 118.591 183.156 118.591 182.995 118.431L171.085 99.2259C171.085 99.2259 171.085 99.0658 171.085 98.9058C171.085 98.7457 171.085 98.7457 171.246 98.5857C171.246 98.5857 171.407 98.5857 171.568 98.5857C175.431 98.9058 178.489 99.866 180.259 101.466C182.834 103.707 186.375 107.868 190.882 113.95L192.169 113.31C192.33 113.31 192.652 113.31 192.813 113.47C192.813 113.63 192.813 113.95 192.652 114.11L183.639 118.751C183.639 118.751 183.639 118.751 183.478 118.751V118.591ZM172.533 99.3859L183.639 117.471L190.077 114.27C185.731 108.348 182.351 104.187 179.776 102.107C178.328 100.826 175.752 99.866 172.533 99.5459V99.3859Z" fill="#101720"/>
<path d="M162.554 129.794C162.393 129.794 162.232 129.794 162.071 129.634L147.264 104.027C147.264 103.867 147.264 103.547 147.425 103.387C147.586 103.227 147.907 103.387 148.068 103.547L162.876 129.154C162.876 129.314 162.876 129.634 162.715 129.794H162.554Z" fill="#101720"/>
<path d="M380.963 414.508C380.319 413.067 367.121 392.902 367.121 392.902L332.839 414.028L352.314 450.997L381.928 438.354L380.802 414.508H380.963Z" fill="#FF7E6E"/>
<path d="M352.315 451.317C352.154 451.317 351.993 451.317 351.832 450.997L332.357 414.028C332.357 413.868 332.357 413.548 332.518 413.388L366.8 392.262C366.961 392.262 367.283 392.262 367.444 392.262C367.927 393.062 380.642 412.587 381.286 414.028C381.286 414.028 381.286 414.028 381.286 414.188L382.412 438.034C382.412 438.194 382.412 438.354 382.091 438.514L352.476 451.157C352.476 451.157 352.476 451.157 352.315 451.157V451.317ZM333.484 414.028L352.637 450.197L381.608 437.874L380.481 414.508C379.676 412.907 370.824 399.144 366.961 393.382L333.484 414.028Z" fill="#101720"/>
<path d="M351.83 466.361C352.957 469.082 354.245 471.483 356.498 473.243C359.556 475.804 364.384 477.084 372.915 476.284C387.4 475.004 410.738 455.799 426.028 438.834C440.031 423.31 449.044 414.028 442.928 405.065C442.445 404.265 441.64 403.465 440.996 402.665C435.846 397.703 426.028 397.543 414.762 400.104C404.622 402.345 393.355 406.666 383.377 411.307C377.26 412.747 378.548 417.869 379.031 422.67C379.192 425.071 379.353 427.471 378.226 429.232C375.007 434.993 366.96 442.035 357.947 438.994C348.933 435.953 343.622 443.315 343.622 443.315C343.622 443.315 348.933 459.48 351.83 466.041V466.361Z" fill="#F8F4F0"/>
<path d="M368.247 477.084C362.935 477.084 358.912 475.964 356.176 473.723C353.761 471.803 352.474 469.082 351.347 466.681C348.611 460.12 343.3 443.955 343.139 443.795C343.139 443.795 343.139 443.475 343.139 443.315C343.139 443.315 348.772 435.793 357.946 438.834C366.798 441.715 374.846 434.513 377.743 429.232C378.708 427.471 378.547 425.071 378.387 422.83C378.387 422.35 378.387 421.87 378.387 421.39C377.904 416.908 377.421 412.267 383.215 410.827C394.321 405.545 405.426 401.544 414.6 399.624C427.476 396.743 436.328 397.703 441.157 402.345C441.961 403.145 442.766 403.945 443.249 404.745C449.526 413.548 441.318 422.51 427.798 437.554L426.349 439.154C410.737 456.279 387.4 475.324 372.914 476.764C371.144 476.924 369.695 476.924 368.086 476.924L368.247 477.084ZM352.313 466.201C353.278 468.602 354.566 471.163 356.819 472.923C360.038 475.644 365.189 476.444 372.914 475.804C387.239 474.523 410.255 455.639 425.706 438.514L427.154 436.914C440.352 422.35 448.399 413.548 442.605 405.385C442.122 404.585 441.479 403.945 440.674 403.145C436.167 398.664 427.476 397.864 414.922 400.744C405.909 402.665 394.803 406.666 383.859 411.947C378.708 413.228 379.03 417.069 379.674 421.55C379.674 422.03 379.674 422.51 379.674 422.99C379.835 425.231 379.996 427.791 378.869 429.872C373.075 440.435 363.257 441.555 357.946 439.954C350.06 437.394 345.231 442.835 344.426 443.955C345.07 446.036 349.899 460.28 352.474 466.521L352.313 466.201Z" fill="#101720"/>
<path d="M356.497 473.403C364.062 494.689 398.827 469.082 426.027 438.994C440.03 423.47 449.043 414.188 442.927 405.225C435.04 423.31 398.183 452.758 381.283 463.161C369.695 470.202 361.326 472.603 356.497 473.403Z" fill="#F2CDAC"/>
<path d="M367.12 481.565C366.155 481.565 365.35 481.565 364.545 481.245C360.521 480.445 357.785 477.884 356.176 473.403V473.083C356.176 473.083 356.337 472.923 356.498 472.923C361.326 472.123 369.696 469.882 381.123 462.84C398.505 452.118 434.88 422.99 442.606 405.225C442.606 405.065 442.766 404.905 442.927 404.905C443.088 404.905 443.249 404.905 443.41 405.065C449.687 413.868 441.479 422.83 427.959 437.874L426.511 439.474C408.323 459.48 382.571 481.885 367.12 481.885V481.565ZM357.141 473.723C358.59 477.564 361.165 479.805 364.545 480.445C373.558 482.205 394.965 472.283 425.545 438.674L426.993 437.074C439.869 422.99 447.756 414.188 442.927 406.186C434.397 424.27 398.666 452.918 381.445 463.481C370.339 470.362 362.131 472.763 357.141 473.723Z" fill="#101720"/>
<path d="M379.03 422.99C408.966 412.587 415.082 406.186 414.76 400.424C404.62 402.665 393.354 406.986 383.375 411.627C377.259 413.067 378.547 418.189 379.03 422.99Z" fill="#F2CDAC"/>
<path d="M379.03 423.31C379.03 423.31 378.869 423.31 378.708 423.31C378.708 423.31 378.547 423.15 378.547 422.99C378.547 422.51 378.547 422.03 378.547 421.55C378.064 417.069 377.581 412.427 383.376 410.987C394.481 405.706 405.587 401.705 414.761 399.784C414.761 399.784 414.922 399.784 415.083 399.784C415.244 399.784 415.404 399.944 415.404 400.264C415.726 407.786 405.426 414.348 379.352 423.31C379.352 423.31 379.352 423.31 379.191 423.31H379.03ZM414.278 400.904C405.265 402.985 394.481 406.826 383.698 411.947C378.547 413.228 378.869 417.069 379.513 421.55C379.513 421.87 379.513 422.03 379.513 422.35C409.449 411.947 414.278 405.706 414.278 400.904Z" fill="#101720"/>
<path d="M352.151 460.12C351.025 460.12 350.059 460.12 349.093 459.8C348.771 459.8 348.61 459.48 348.771 459.159C348.932 458.839 349.093 458.679 349.415 458.839C359.233 460.76 378.064 451.637 386.755 444.436C387.721 443.635 388.687 442.995 389.652 442.195C398.183 435.473 407.679 427.951 400.919 414.188C400.919 414.028 400.919 413.708 401.08 413.548C401.241 413.548 401.563 413.548 401.724 413.708C408.966 428.111 398.505 436.273 390.296 442.835C389.331 443.635 388.365 444.436 387.399 445.076C379.352 451.637 362.774 459.96 352.312 459.96L352.151 460.12Z" fill="#101720"/>
<path d="M235.464 380.259L279.886 364.735L327.366 436.914L383.698 398.184C383.698 398.184 340.725 303.119 322.859 291.756C304.994 280.393 232.567 305.359 232.567 305.359L235.303 380.099L235.464 380.259Z" fill="#82C9D7"/>
<mask id="mask2_320_4909" style="mask-type:luminance" maskUnits="userSpaceOnUse" x="232" y="288" width="152" height="149">
<path d="M235.464 380.259L279.886 364.735L327.366 436.914L383.698 398.184C383.698 398.184 340.724 303.119 322.859 291.756C304.994 280.393 232.567 305.359 232.567 305.359L235.303 380.099L235.464 380.259Z" fill="white"/>
</mask>
<g mask="url(#mask2_320_4909)">
<path d="M238.524 307.44C253.17 323.444 257.194 351.131 267.656 352.252C278.117 353.372 302.743 340.248 301.133 349.051C299.524 357.853 300.811 374.497 313.687 392.902C326.563 411.147 349.418 422.03 364.547 411.787C379.515 401.384 369.215 427.311 369.215 427.311L333.001 446.516L294.373 454.518L225.97 394.823L238.685 307.6L238.524 307.44Z" fill="#008FB1"/>
<path d="M234.982 296.557C248.663 316.242 255.584 364.575 257.998 378.658C260.412 392.742 221.302 395.463 221.302 395.463L234.982 296.557Z" fill="#101720"/>
</g>
<path d="M327.527 437.394C327.527 437.394 327.366 437.394 327.205 437.234L279.886 365.375L235.786 380.739C235.786 380.739 235.464 380.739 235.303 380.739C235.303 380.739 235.142 380.579 235.142 380.419L232.406 305.68C232.406 305.52 232.406 305.359 232.728 305.199C232.889 305.199 251.076 298.798 271.195 293.997C298.395 287.595 315.939 286.635 323.343 291.436C330.746 296.237 343.461 315.602 360.683 349.051C373.559 373.857 384.342 397.703 384.342 398.024C384.342 398.184 384.342 398.504 384.181 398.664L327.849 437.394C327.849 437.394 327.688 437.394 327.527 437.394ZM279.886 364.255C280.047 364.255 280.208 364.255 280.208 364.415L327.527 436.274L383.216 398.024C380.319 391.622 339.759 303.119 322.699 292.236C305.799 281.513 238.522 304.079 233.211 305.84L235.947 379.619L279.725 364.415C279.725 364.415 279.725 364.415 279.886 364.415V364.255Z" fill="#101720"/>
<path d="M247.053 334.647C247.053 385.22 234.016 413.228 192.17 454.838C150.323 496.449 86.5869 529.418 86.5869 529.418C86.5869 529.418 91.0935 518.215 86.5869 495.009C82.0803 471.803 43.4525 427.311 29.45 431.952C29.45 431.952 88.5183 396.263 107.51 382.66C107.51 382.66 79.1833 354.972 90.4497 334.487H247.053V334.647Z" fill="#82C9D7"/>
<mask id="mask3_320_4909" style="mask-type:luminance" maskUnits="userSpaceOnUse" x="29" y="334" width="219" height="196">
<path d="M247.052 334.647C247.052 385.22 234.015 413.228 192.168 454.838C150.321 496.449 86.5855 529.418 86.5855 529.418C86.5855 529.418 91.092 518.215 86.5855 495.009C82.0789 471.803 43.4511 427.311 29.4485 431.952C29.4485 431.952 88.5169 396.263 107.509 382.66C107.509 382.66 79.1818 354.972 90.4482 334.487H247.052V334.647Z" fill="white"/>
</mask>
<g mask="url(#mask3_320_4909)">
<path d="M141.631 325.525C125.697 340.569 142.114 354.332 138.251 369.856C134.388 385.38 78.056 419.949 74.676 434.993C71.2961 449.877 116.201 481.405 116.201 512.453C116.201 543.501 92.8633 549.103 92.8633 549.103L28.9665 495.329L0.317505 417.869L83.2064 319.283L141.631 325.525Z" fill="#008FB1"/>
</g>
<path d="M86.5866 529.898C86.5866 529.898 86.4257 529.898 86.2647 529.898C86.2647 529.898 86.1038 529.578 86.2647 529.418C86.2647 529.418 90.6104 518.055 86.2647 495.329C82.5629 476.284 56.972 444.916 40.5551 435.313C35.8876 432.593 32.3467 431.792 29.6106 432.593C29.4496 432.593 29.1277 432.593 28.9668 432.272C28.9668 432.112 28.9668 431.792 29.1278 431.632C29.7716 431.312 87.3914 396.423 106.705 382.82C103.325 379.299 79.3439 353.692 89.9665 334.487C89.9665 334.327 90.2885 334.167 90.4494 334.167H247.053C247.375 334.167 247.536 334.327 247.536 334.647C247.536 385.06 234.821 413.228 192.491 455.319C150.162 497.409 87.3914 529.578 86.7476 529.898C86.7476 529.898 86.7476 529.898 86.5866 529.898ZM31.7029 431.152C34.2781 431.152 37.3362 432.273 40.877 434.353C57.4548 443.956 83.3676 475.644 87.0695 495.009C90.7713 514.214 88.3571 525.097 87.3914 528.457C95.9217 523.976 153.541 492.768 191.847 454.518C233.855 412.747 246.57 384.9 246.57 335.127H90.6103C79.9877 355.132 107.51 382.179 107.671 382.5C107.671 382.5 107.832 382.66 107.671 382.82C107.671 382.82 107.671 383.14 107.51 383.14C90.6103 395.143 42.0037 424.751 31.381 431.152H31.7029Z" fill="#101720"/>
<path d="M86.5873 529.418C85.6216 528.938 54.7193 514.854 40.7167 485.406C26.3923 455.478 29.4503 431.952 29.4503 431.952C43.4529 427.311 82.2416 471.803 86.5873 495.009C91.0938 518.215 86.5873 529.418 86.5873 529.418Z" fill="#101720"/>
<path d="M86.5873 529.898C86.5873 529.898 86.4264 529.898 86.2654 529.898C84.3341 528.938 54.2365 515.014 40.073 485.726C25.9095 455.959 28.8066 432.272 28.8066 432.112C28.8066 431.952 28.8066 431.792 29.1285 431.792C32.0256 430.832 35.8883 431.792 40.8778 434.513C57.4555 444.116 83.3684 475.804 87.0702 495.169C91.5768 518.215 87.0702 529.418 87.0702 529.738C87.0702 529.738 86.9092 530.058 86.7483 530.058L86.5873 529.898ZM29.9332 432.432C29.6113 435.313 28.0018 457.559 41.1997 485.246C54.5584 513.093 82.4027 526.857 86.4264 528.778C87.2311 526.377 90.1282 515.174 86.2654 495.169C82.5636 476.124 56.9727 444.756 40.5559 435.153C36.0493 432.593 32.5084 431.632 29.9332 432.272V432.432Z" fill="#101720"/>
<path d="M90.448 335.127C90.448 335.127 90.448 335.127 90.2871 335.127C89.9652 335.127 89.9652 334.647 90.1261 334.487C90.1261 334.487 90.1261 334.167 90.9308 333.047C91.5746 331.926 92.0575 330.966 92.5403 330.166L93.1841 328.886C93.1841 328.726 93.667 328.566 93.8279 328.726C94.1498 328.726 94.1498 329.206 93.9889 329.366L93.3451 330.646C92.8622 331.446 92.3794 332.407 91.7356 333.527C91.0918 334.807 90.9308 334.967 90.9308 334.967C90.9308 335.127 90.609 335.287 90.448 335.287V335.127Z" fill="#101720"/>
<path d="M90.448 335.127C90.448 335.127 90.448 335.127 90.2871 335.127C89.9652 335.127 89.9652 334.647 90.1261 334.487C90.1261 334.487 90.1261 334.167 90.9308 333.047C91.5746 331.926 92.0575 330.966 92.5403 330.166C92.8622 329.686 93.0232 329.206 93.1841 328.886L93.667 327.925C93.667 327.925 93.667 327.925 93.667 327.765C93.667 327.765 93.667 327.605 93.8279 327.445C93.8279 327.285 93.8279 327.125 93.9889 327.125C93.9889 327.125 93.9889 326.965 94.1498 326.805C94.1498 326.805 94.1498 326.805 94.1498 326.645C94.1498 326.485 94.3108 326.325 94.4717 326.165V326.005C94.6327 325.845 94.9546 325.845 95.1155 326.005C95.2765 326.165 95.2765 326.485 95.1155 326.645C95.1155 326.645 95.1155 326.805 95.1155 326.965C95.1155 326.965 95.1155 326.965 95.1155 327.125C95.1155 327.125 95.1155 327.285 95.1155 327.445C95.1155 327.445 95.1155 327.765 94.7936 327.925C94.7936 328.085 94.6327 328.245 94.4717 328.565C94.4717 328.565 94.4717 328.565 94.4717 328.726L93.8279 329.846C93.667 330.166 93.3451 330.646 93.1841 331.126C92.7013 331.926 92.2184 332.887 91.5746 334.007C90.9309 335.287 90.7699 335.447 90.7699 335.447C90.7699 335.607 90.448 335.767 90.2871 335.767L90.448 335.127Z" fill="#101720"/>
<path d="M23.0107 300.558C84.8152 226.779 107.992 195.411 156.76 188.689C205.527 181.967 267.493 218.297 267.493 218.297L310.788 156.841C310.788 156.841 336.54 163.563 351.83 174.765C351.83 174.765 319.318 248.545 292.279 270.951C265.239 293.356 237.234 275.912 237.234 275.912L247.213 334.647H90.6094L95.4379 296.877L61.7995 338.008L23.1717 300.558H23.0107Z" fill="#F8F4F0"/>
<mask id="mask4_320_4909" style="mask-type:luminance" maskUnits="userSpaceOnUse" x="23" y="156" width="329" height="183">
<path d="M23.0107 300.558C84.8152 226.779 107.992 195.411 156.76 188.689C205.527 181.967 267.493 218.297 267.493 218.297L310.788 156.841C310.788 156.841 336.54 163.563 351.83 174.765C351.83 174.765 319.318 248.545 292.279 270.951C265.239 293.356 237.234 275.912 237.234 275.912L247.213 334.647H90.6094L95.4379 296.877L61.7995 338.008L23.1717 300.558H23.0107Z" fill="white"/>
</mask>
<g mask="url(#mask4_320_4909)">
<path d="M26.7108 319.283C26.7108 319.283 98.4942 221.498 119.579 206.774C140.663 192.21 197.8 197.652 225.483 209.175C253.166 220.698 259.122 223.098 258.961 225.819C258.8 228.54 256.385 234.461 256.385 234.461C256.385 234.461 262.501 236.062 268.778 228.7C275.055 221.498 316.58 154.76 316.58 154.76L257.029 140.997L63.7291 184.048L-14.4922 279.913L26.8718 318.963L26.7108 319.283Z" fill="#8FDCE8"/>
</g>
<path d="M61.6369 338.488H61.3151L22.6872 301.038C22.5263 300.878 22.5263 300.558 22.6872 300.398C26.8719 295.437 30.7347 290.796 34.5975 286.154C87.0669 223.418 111.048 194.611 156.758 188.369C182.188 184.848 210.998 193.17 230.634 200.692C250.108 208.214 264.755 216.376 267.33 217.817L310.303 156.681C310.303 156.521 310.625 156.521 310.786 156.521C311.108 156.521 336.86 163.403 351.989 174.445C352.15 174.445 352.15 174.766 352.15 175.086C352.15 175.246 343.942 193.81 332.514 214.776C322.053 234.141 306.441 259.748 292.438 271.431C268.135 291.436 242.705 279.753 237.715 277.032L247.533 334.807V335.127C247.533 335.127 247.372 335.287 247.211 335.287H90.6078C90.6078 335.287 90.2859 335.287 90.2859 335.127C90.2859 335.127 90.2859 334.967 90.2859 334.807L94.7925 298.638L62.2807 338.488C62.2807 338.488 62.1198 338.648 61.9588 338.648L61.6369 338.488ZM23.6529 300.558L61.6369 337.368L94.9534 296.557C94.9534 296.397 95.2753 296.397 95.4363 296.557C95.5972 296.557 95.7582 296.877 95.7582 297.037L91.0907 334.327H246.729L236.911 276.232C236.911 276.072 236.911 275.912 237.072 275.752C237.233 275.592 237.393 275.752 237.554 275.752C237.876 275.912 265.721 292.556 292.116 270.79C317.707 249.505 348.931 180.687 351.346 175.086C337.182 164.843 314.166 158.441 311.108 157.641L267.974 218.777C267.974 218.937 267.491 219.097 267.33 218.777C267.169 218.777 251.557 209.655 230.312 201.492C210.676 193.97 182.027 185.808 156.919 189.169C111.531 195.411 89.1593 222.138 35.2413 286.635C31.5394 291.116 27.6767 295.757 23.6529 300.558Z" fill="#101720"/>
<path d="M310.787 156.841C316.742 147.559 313.201 136.196 324.79 136.676C324.79 136.676 328.974 129.954 332.676 127.873C336.378 125.793 339.919 127.393 340.563 130.914C340.563 130.914 344.265 129.154 347.162 131.234C350.059 133.315 349.898 135.715 349.898 135.715C349.898 135.715 354.887 135.235 356.98 138.436C359.072 141.637 357.784 143.557 357.784 143.557C357.784 143.557 364.222 143.237 364.061 149.799C363.739 156.361 351.829 174.766 351.829 174.766L310.787 156.841Z" fill="#FF7E6D"/>
<mask id="mask5_320_4909" style="mask-type:luminance" maskUnits="userSpaceOnUse" x="310" y="126" width="55" height="49">
<path d="M310.787 156.841C316.742 147.559 313.201 136.196 324.79 136.676C324.79 136.676 328.974 129.954 332.676 127.873C336.378 125.793 339.919 127.393 340.563 130.914C340.563 130.914 344.265 129.154 347.162 131.234C350.059 133.315 349.898 135.715 349.898 135.715C349.898 135.715 354.887 135.235 356.98 138.436C359.072 141.637 357.784 143.557 357.784 143.557C357.784 143.557 364.222 143.237 364.061 149.959C363.739 156.521 351.829 174.926 351.829 174.926L310.787 157.001V156.841Z" fill="white"/>
</mask>
<g mask="url(#mask5_320_4909)">
<path d="M325.915 135.075C325.915 135.075 317.546 146.758 319.316 150.919C320.926 155.08 356.013 173.805 356.013 173.805L352.794 178.446L306.762 156.841L309.338 141.157L317.707 132.995L325.915 135.075Z" fill="#008FB1"/>
<path d="M333.48 126.433C337.343 126.433 337.987 128.994 337.665 130.594C337.343 132.194 336.056 135.075 336.699 135.555C337.343 136.035 338.631 133.795 339.275 132.675C339.918 131.554 341.367 128.834 341.367 128.834L340.401 125.153L335.251 124.512L333.48 126.273V126.433Z" fill="#008FB1"/>
<path d="M345.391 130.594C347.162 131.234 348.127 133.955 347.645 135.555C347.162 137.156 346.196 139.556 347.001 140.197C347.805 140.837 349.898 136.356 350.703 134.435C351.507 132.515 349.898 129.634 349.898 129.634L347.001 128.354L345.23 130.754L345.391 130.594Z" fill="#008FB1"/>
<path d="M354.242 136.356C356.334 138.116 356.495 141.797 355.852 142.917C355.208 144.038 353.759 148.039 354.725 148.519C355.691 148.999 357.3 144.358 357.3 144.358L359.071 140.677L357.783 135.075L354.242 136.195" fill="#008FB1"/>
<path d="M359.715 143.878C361.646 145.958 361.646 147.238 361.324 151.399C361.002 155.561 358.588 160.842 361.002 161.642C363.417 162.442 367.923 150.599 367.923 150.599L364.865 142.277L359.715 143.878Z" fill="#008FB1"/>
</g>
<path d="M318.03 147.558C318.03 147.558 317.869 147.558 317.708 147.558C317.547 147.558 317.386 147.078 317.708 146.918L324.468 136.516C324.468 136.356 324.951 136.196 325.112 136.516C325.273 136.516 325.434 136.996 325.112 137.156L318.352 147.558C318.352 147.558 318.191 147.719 318.03 147.719V147.558Z" fill="#101720"/>
<path d="M338.149 135.555H337.988C337.828 135.555 337.667 135.075 337.828 134.915L340.242 130.754C340.242 130.594 340.725 130.434 340.886 130.594C341.047 130.594 341.207 131.074 341.047 131.234L338.632 135.395C338.632 135.555 338.31 135.555 338.149 135.555Z" fill="#101720"/>
<path d="M347.968 139.876C347.968 139.876 347.968 139.876 347.807 139.876C347.646 139.876 347.485 139.396 347.646 139.236L349.577 135.395C349.577 135.235 350.06 135.075 350.221 135.235C350.382 135.235 350.543 135.715 350.382 135.875L348.451 139.716C348.451 139.876 348.129 140.036 347.968 140.036V139.876Z" fill="#101720"/>
<path d="M355.853 148.039C355.853 148.039 355.853 148.039 355.692 148.039C355.532 148.039 355.371 147.718 355.532 147.398L357.463 143.237C357.463 143.077 357.785 142.917 358.107 143.077C358.429 143.237 358.429 143.397 358.268 143.717L356.336 147.879C356.336 148.039 356.014 148.199 355.853 148.199V148.039Z" fill="#101720"/>
<path d="M312.719 153.16C328.652 161.322 351.829 174.766 351.829 174.766L310.787 156.841L312.719 153V153.16Z" fill="#101720"/>
<path d="M351.831 175.246C351.831 175.246 351.831 175.246 351.67 175.246L310.628 157.321C310.628 157.321 310.467 157.161 310.306 157.001V156.681L312.237 152.84C312.237 152.84 312.398 152.68 312.559 152.68H312.881C328.654 160.842 351.67 174.126 351.991 174.286C352.152 174.286 352.313 174.606 352.152 174.926C352.152 175.086 351.831 175.246 351.67 175.246H351.831ZM311.432 156.681L343.944 170.925C335.897 166.283 323.021 159.082 312.881 153.8L311.432 156.681Z" fill="#101720"/>
<path d="M351.831 175.246C351.831 175.246 351.831 175.246 351.67 175.246L310.628 157.321C310.628 157.321 310.467 157.161 310.306 157.001V156.681C312.398 153.48 313.364 149.959 314.168 146.758C315.617 140.997 316.905 136.196 324.469 136.196C325.274 134.915 328.976 129.314 332.356 127.393C334.287 126.273 336.379 126.113 337.989 126.913C339.277 127.553 340.242 128.674 340.725 130.274C341.852 129.794 344.91 128.994 347.324 130.754C349.577 132.355 350.221 134.275 350.221 135.235C351.67 135.235 355.371 135.395 357.303 138.276C358.751 140.517 358.751 142.277 358.429 143.237C359.395 143.237 361.327 143.718 362.775 144.998C363.902 146.118 364.546 147.879 364.385 149.959C364.063 156.521 352.635 174.446 352.152 175.086C352.152 175.086 351.991 175.246 351.831 175.246ZM311.593 156.681L351.67 174.125C353.279 171.565 363.258 155.721 363.58 149.799C363.58 148.039 363.258 146.598 362.131 145.638C360.522 144.038 357.786 144.038 357.786 144.038C357.625 144.038 357.464 144.038 357.303 143.878C357.303 143.718 357.303 143.558 357.303 143.398C357.303 143.398 358.269 141.637 356.498 138.756C354.567 135.876 349.899 136.196 349.899 136.196H349.577C349.577 136.196 349.416 136.036 349.577 135.876C349.577 135.876 349.577 133.635 347.002 131.714C344.427 129.794 340.886 131.394 340.886 131.554C340.886 131.554 340.564 131.554 340.403 131.554C340.403 131.554 340.242 131.394 340.081 131.234C339.759 129.794 338.955 128.674 337.667 128.034C336.218 127.393 334.609 127.553 332.839 128.514C329.298 130.434 325.113 137.156 325.113 137.156C325.113 137.156 324.952 137.316 324.63 137.316C317.548 136.996 316.583 141.317 314.973 147.078C314.168 150.119 313.364 153.64 311.271 156.841L311.593 156.681Z" fill="#101720"/>
<path d="M238.522 283.914L216.955 261.348C222.427 266.789 229.187 271.751 237.235 275.912L238.522 283.914Z" fill="#101720"/>
<path d="M238.521 284.394H238.199L216.631 261.828C216.471 261.668 216.471 261.348 216.631 261.188C216.792 261.028 217.114 261.028 217.275 261.188C222.748 266.629 229.668 271.751 237.394 275.752C237.394 275.752 237.555 275.912 237.716 276.072L239.003 284.074C239.003 284.234 239.003 284.554 238.681 284.554C238.681 284.554 238.681 284.554 238.521 284.554V284.394ZM224.357 268.55L237.716 282.474L236.75 276.232C232.404 273.991 228.22 271.271 224.518 268.55H224.357Z" fill="#101720"/>
<path d="M216.794 261.828C216.794 261.828 216.634 261.828 216.473 261.828C215.829 261.188 215.185 260.548 214.541 259.908L214.219 259.588C206.977 251.586 202.953 242.783 202.792 234.941C202.792 234.621 202.953 234.461 203.275 234.461C203.597 234.461 203.758 234.621 203.758 234.941C203.758 242.783 207.942 251.425 215.185 259.428L217.116 261.348C217.277 261.508 217.277 261.828 217.116 261.988C216.955 262.148 216.955 261.988 216.794 261.988V261.828Z" fill="#101720"/>
<path d="M101.072 260.548L86.5869 307.44L95.2782 296.877C101.233 257.187 107.51 224.218 107.51 224.218" fill="#101720"/>
<path d="M86.5864 307.76C86.5864 307.76 86.5864 307.76 86.4254 307.76C86.2645 307.76 86.1035 307.44 86.1035 307.12L100.589 260.228C104.13 238.942 107.027 224.218 107.027 224.058C107.027 223.738 107.349 223.578 107.671 223.738C107.993 223.738 108.154 224.058 107.993 224.378C107.993 224.699 101.555 257.827 95.7605 296.877V297.037L87.0692 307.6C87.0692 307.6 86.9083 307.76 86.7473 307.76H86.5864ZM99.3014 267.59L87.713 305.2L94.6338 296.717C96.0824 286.475 97.6919 276.552 99.1404 267.75L99.3014 267.59Z" fill="#101720"/>
<path d="M61.6387 338.008C61.6387 338.008 47.958 358.973 43.1295 360.414C38.301 362.014 37.6572 350.011 37.6572 350.011C37.6572 350.011 18.9871 373.697 15.1243 375.938C11.2615 378.178 6.91592 373.537 7.88161 370.016C7.88161 370.016 1.2827 376.738 -2.25818 373.697C-5.79907 370.656 -3.06293 363.615 -3.06293 363.615C-3.06293 363.615 -9.01805 368.736 -12.237 365.375C-15.456 362.014 -12.7199 356.573 -12.7199 356.573C-12.7199 356.573 -17.8703 357.533 -18.836 352.092C-19.8016 346.65 -1.93629 330.646 23.1718 300.718L61.7996 338.168L61.6387 338.008Z" fill="#FF7E6D"/>
<mask id="mask6_320_4909" style="mask-type:luminance" maskUnits="userSpaceOnUse" x="-19" y="300" width="81" height="77">
<path d="M61.6409 338.008C61.6409 338.008 47.9602 358.973 43.1317 360.414C38.3032 362.014 37.6594 350.011 37.6594 350.011C37.6594 350.011 18.9893 373.697 15.1265 375.938C11.2637 378.178 6.91812 373.537 7.88381 370.016C7.88381 370.016 1.2849 376.738 -2.25599 373.697C-5.79687 370.656 -3.06073 363.615 -3.06073 363.615C-3.06073 363.615 -9.01585 368.736 -12.2348 365.375C-15.4538 362.014 -12.7177 356.573 -12.7177 356.573C-12.7177 356.573 -17.8681 357.533 -18.8338 352.092C-19.7994 346.65 -1.93409 330.646 23.174 300.718L61.8018 338.168L61.6409 338.008Z" fill="white"/>
</mask>
<g mask="url(#mask6_320_4909)">
<path d="M13.678 309.2C23.4959 307.12 36.5328 317.843 42.4879 327.125C48.4431 336.408 41.8441 344.89 36.8547 342.329C31.8653 339.768 26.554 335.447 26.8759 338.168C27.1978 340.729 32.0262 349.851 31.0605 352.732C30.0948 355.613 13.0342 375.938 9.49335 374.978C6.11341 374.017 11.4247 382.339 11.4247 382.339L45.8679 376.578L59.2267 357.053L64.8599 331.766L50.2135 311.441L21.5645 295.597L13.9999 309.04L13.678 309.2Z" fill="#008FB1"/>
<path d="M20.4369 353.532C20.4369 353.532 22.5292 350.811 20.7588 350.171C18.9883 349.531 9.97517 362.494 6.27334 366.815C2.57151 371.137 -3.54456 373.857 -6.6026 372.577C-9.49968 371.457 0.640117 377.538 0.640117 377.538L7.07809 371.137L20.2759 353.532" fill="#008FB1"/>
<path d="M10.6184 345.69C11.1013 344.09 11.2622 342.649 10.1356 342.489C9.00895 342.329 2.57098 352.252 -0.969905 356.413C-4.51079 360.574 -9.66116 365.375 -12.2364 363.455C-14.6506 361.534 -14.1677 368.416 -14.1677 368.416L-9.66116 370.016L-3.70604 364.415L10.6184 345.85" fill="#008FB1"/>
<path d="M2.57243 337.688C3.37718 336.247 2.25053 335.767 1.44578 336.087C0.641035 336.408 -8.37212 347.45 -12.5568 350.811C-16.7415 354.172 -18.8338 354.972 -20.6043 353.532C-22.3747 352.092 -19.1557 358.493 -19.1557 358.493H-15.4539L-13.5225 356.733L2.57243 337.688Z" fill="#008FB1"/>
</g>
<path d="M12.8712 376.898C11.7446 376.898 10.6179 376.578 9.65225 375.778C8.20371 374.658 7.23801 372.897 7.07707 371.137C4.98473 372.897 0.3172 376.418 -2.74084 373.857C-5.47697 371.457 -4.83318 366.976 -4.18938 364.575C-6.12077 366.015 -10.3054 368.096 -12.8806 365.375C-15.6168 362.494 -14.4901 358.493 -13.8463 356.893C-14.6511 356.893 -16.0996 356.893 -17.3872 355.933C-18.6748 355.132 -19.3186 353.692 -19.6405 351.932C-20.2843 348.251 -13.6854 341.049 -1.77514 327.925C4.98472 320.563 13.1931 311.281 22.5282 300.238C22.5282 300.238 22.6891 300.078 22.8501 300.078H23.172L61.7998 337.528C61.7998 337.688 61.9607 338.008 61.7998 338.168C61.3169 338.968 47.9582 359.294 42.9687 360.894C42.003 361.214 41.1983 361.054 40.3936 360.574C37.9793 358.973 37.3355 353.692 37.0136 351.291C33.4727 355.773 18.6654 374.337 15.1245 376.258C14.3198 376.738 13.515 376.898 12.7103 376.898H12.8712ZM7.88181 369.376C7.88181 369.376 7.88182 369.376 8.20372 369.376C8.36467 369.376 8.52561 369.696 8.36466 369.856C7.88182 371.457 8.68656 373.537 10.296 374.818C11.7446 375.938 13.3541 376.098 14.8026 375.298C18.5045 373.057 37.0136 349.851 37.1746 349.531C37.1746 349.371 37.4965 349.371 37.6574 349.371C37.8184 349.371 37.9793 349.531 37.9793 349.851C37.9793 352.092 38.7841 358.013 41.0373 359.614C41.5202 359.934 42.164 360.094 42.8078 359.774C46.5096 358.653 56.1666 345.05 60.8341 337.848L22.8501 301.038C13.676 311.921 5.46758 321.044 -1.13134 328.405C-12.0759 340.409 -19.3186 348.411 -18.6748 351.611C-18.3529 353.052 -17.7091 354.172 -16.7434 354.972C-15.1339 356.093 -13.0416 355.773 -13.0416 355.773C-12.8806 355.773 -12.7197 355.773 -12.5587 355.933C-12.3978 356.093 -12.5587 356.253 -12.5587 356.413C-12.5587 356.413 -14.973 361.534 -12.0759 364.575C-9.1788 367.616 -3.54558 362.814 -3.54558 362.814C-3.54558 362.814 -3.22368 362.654 -2.90178 362.814C-2.74083 362.814 -2.57989 363.134 -2.74084 363.455C-2.74084 363.455 -5.15507 370.336 -2.09704 373.057C0.960999 375.778 7.23801 369.536 7.23801 369.536C7.23801 369.536 7.39897 369.536 7.55992 369.536L7.88181 369.376Z" fill="#101720"/>
<path d="M-12.8809 356.893C-12.8809 356.893 -13.0419 356.893 -13.2028 356.893C-13.3638 356.733 -13.5247 356.413 -13.2028 356.253L2.73115 337.048C2.8921 336.888 3.214 336.888 3.37495 337.048C3.5359 337.208 3.69685 337.528 3.37495 337.688L-12.559 356.893L-12.8809 357.053V356.893Z" fill="#101720"/>
<path d="M-3.06232 363.775C-3.06232 363.775 -3.22327 363.775 -3.38422 363.775C-3.54517 363.615 -3.70612 363.294 -3.38422 363.134L10.9403 344.73C10.9403 344.57 11.4231 344.57 11.5841 344.73C11.745 344.89 11.906 345.21 11.5841 345.37L-2.74042 363.775L-3.06232 363.935V363.775Z" fill="#101720"/>
<path d="M7.88067 370.336C7.88067 370.336 7.71972 370.336 7.55877 370.336C7.39782 370.176 7.23687 369.856 7.55877 369.696L21.0785 352.252C21.0785 352.092 21.5613 351.932 21.7223 352.252C21.8832 352.412 22.0442 352.732 21.7223 352.892L8.20257 370.336L7.88067 370.496V370.336Z" fill="#101720"/>
<path d="M37.6566 350.491C37.6566 350.491 37.4956 350.491 37.3347 350.491L20.9178 336.088C20.7569 335.927 20.7569 335.607 20.9178 335.447C21.0788 335.287 21.4007 335.287 21.5616 335.447L37.9785 349.851C38.1394 350.011 38.1394 350.331 37.9785 350.491C37.9785 350.491 37.8175 350.651 37.6566 350.651V350.491Z" fill="#101720"/>
<path d="M19.6318 304.399L61.6396 338.008L23.0118 300.558L19.6318 304.399Z" fill="#101720"/>
<path d="M61.6373 338.488C61.6373 338.488 61.4763 338.488 61.3154 338.488L19.4686 304.879C19.4686 304.879 19.4686 304.719 19.3076 304.559C19.1467 304.399 19.3076 304.239 19.3076 304.239L22.5266 300.398C22.5266 300.398 22.6876 300.238 22.8485 300.238H23.1704L61.7982 337.688C61.9592 337.848 61.9592 338.168 61.7982 338.328C61.7982 338.328 61.6373 338.488 61.4763 338.488H61.6373ZM20.4343 304.399L53.9117 331.286L23.0095 301.358L20.4343 304.399Z" fill="#101720"/>
<path d="M49.2443 456.759C51.1757 458.519 53.429 460.76 55.6822 463.321C64.5344 473.083 71.9381 485.406 76.7666 497.409L58.0965 510.213L49.0833 516.294L29.1256 495.329L28.8037 468.762L30.0913 467.962L49.2443 456.599V456.759Z" fill="#FF7E6E"/>
<path d="M49.2451 516.774H48.9232L28.9654 495.809C28.9654 495.809 28.9654 495.649 28.9654 495.489L28.6436 468.922C28.6436 468.762 28.6435 468.602 28.9654 468.442L49.406 456.439C49.567 456.439 49.8889 456.439 50.0498 456.439C51.9812 458.359 54.2345 460.44 56.4878 463C64.8571 472.123 72.4217 484.286 77.7331 497.249C77.7331 497.409 77.7331 497.729 77.5721 497.889L50.0498 516.934C50.0498 516.934 49.8888 516.934 49.7279 516.934L49.2451 516.774ZM29.6092 495.009L49.2451 515.654L76.1236 497.089C70.8122 484.446 63.4086 472.443 55.2002 463.481C53.1078 461.08 51.0155 458.999 49.0841 457.239L29.1264 469.082L29.4483 495.169L29.6092 495.009Z" fill="#101720"/>
<path d="M36.8514 477.884C35.2419 485.086 30.5743 497.089 40.8751 502.211C46.0255 504.771 50.5321 506.372 54.2339 508.452C58.0967 510.533 61.1547 512.933 63.408 516.935C65.6613 521.096 67.5927 539.18 67.4317 558.385C67.2708 575.03 65.5003 592.474 60.9938 602.237C58.2576 608.158 55.6824 612.319 53.4291 615.2C47.474 622.882 43.2893 622.242 43.2893 622.242L-27.5283 491.808C-25.275 488.607 -19.9637 483.966 -13.6867 479.165C-2.58119 470.843 11.9042 462.52 18.986 462.2C30.0915 461.88 38.2999 470.522 36.6904 477.724L36.8514 477.884Z" fill="#F8F4F0"/>
<path d="M43.4517 622.882H43.1298C43.1298 622.882 42.8079 622.882 42.8079 622.722L-28.0098 492.288C-28.0098 492.128 -28.0098 491.968 -28.0098 491.808C-25.9174 488.767 -20.767 484.126 -14.0072 479.165C-2.90169 470.843 11.5837 462.36 18.9874 462.2C24.9425 462.04 30.7367 464.441 34.2776 468.602C36.8528 471.643 37.8185 475.164 37.1747 478.364C37.0137 479.325 36.6918 480.285 36.5309 481.405C34.5995 488.767 32.3462 497.89 41.0374 502.211C43.2907 503.331 45.3831 504.291 47.4754 505.091C50.0506 506.212 52.4648 507.332 54.5572 508.452C59.0638 510.853 61.9609 513.574 63.8922 517.095C66.3065 521.576 68.2379 540.141 67.916 558.705C67.916 570.068 66.7893 591.034 61.3171 602.717C58.9028 608.158 56.3276 612.479 53.7524 615.84C48.4411 622.562 44.5783 623.042 43.6126 623.042L43.4517 622.882ZM-26.8831 491.808L43.6126 621.762C44.5783 621.762 48.1192 621.122 52.9477 615.04C55.5229 611.839 58.0981 607.518 60.5123 602.077C65.8236 590.554 66.7893 569.908 66.9503 558.545C67.1112 538.54 65.0189 521.096 62.9266 517.255C60.9952 513.894 58.42 511.333 53.9134 508.932C51.821 507.812 49.4068 506.692 46.9926 505.572C44.9002 504.611 42.8079 503.651 40.5546 502.531C31.2196 497.89 33.6338 487.967 35.5652 480.605C35.8871 479.645 36.048 478.525 36.209 477.724C36.8528 474.844 35.8871 471.643 33.4728 468.762C30.0929 464.761 24.7816 462.52 18.9874 462.68C11.9056 463 -2.90169 471.643 -13.5243 479.485C-19.9623 484.286 -24.7908 488.767 -27.0441 491.648L-26.8831 491.808Z" fill="#101720"/>
<path d="M26.5506 519.175C46.3474 554.544 64.3737 587.993 53.4291 615.36C47.474 623.042 43.2893 622.402 43.2893 622.402L-27.5283 491.968C-25.275 488.767 -19.9637 484.126 -13.6867 479.325C-13.6867 479.325 6.59291 483.806 26.3897 519.175H26.5506Z" fill="#F2CDAC"/>
<path d="M43.4517 622.882H43.1298C43.1298 622.882 42.8079 622.882 42.8079 622.722L-28.0098 492.288C-28.0098 492.128 -28.0098 491.968 -28.0098 491.808C-25.9174 488.767 -20.767 484.126 -14.0072 479.165H-13.6853C-13.5243 479.165 7.07717 484.126 26.713 519.335C45.544 552.944 65.0189 587.833 53.5915 615.84C53.5915 615.84 53.5915 615.84 53.5915 616C48.2802 622.722 44.4174 623.202 43.4517 623.202V622.882ZM-26.8831 491.808L43.6126 621.762C44.5783 621.762 48.1192 621.122 52.9477 615.04C64.0532 587.353 44.7393 552.784 26.0692 519.335C7.72097 486.367 -11.271 480.285 -13.5243 479.645C-19.8014 484.446 -24.6298 488.767 -26.8831 491.808Z" fill="#101720"/>
<path d="M-27.5255 491.808C-19.4781 479.645 5.30811 502.371 25.2658 541.421C45.2235 580.471 55.6852 608.798 43.2921 622.242C30.7381 635.685 0.962475 577.91 -9.82112 554.224C-20.6047 530.538 -34.9292 505.252 -27.3646 491.808H-27.5255Z" fill="#82C9D7"/>
<path d="M38.9443 624.803C38.6224 624.803 38.1396 624.803 37.8177 624.803C20.5961 622.082 -9.01855 557.265 -10.3061 554.544C-11.9156 551.024 -13.5251 547.663 -15.1346 544.142C-25.1135 523.176 -34.4485 503.331 -27.8496 491.648C-26.2401 489.247 -23.8259 487.967 -20.9288 488.127C-9.1795 488.767 10.1344 510.693 25.9074 541.421C45.8651 580.311 56.4878 609.119 43.7728 622.722C42.4852 624.163 40.8757 624.963 39.1053 624.963L38.9443 624.803ZM-27.0449 492.128C-33.3219 503.491 -23.6649 523.976 -14.3299 543.662C-12.7204 547.182 -11.1109 550.703 -9.5014 554.064C1.12124 577.27 24.4589 621.602 37.9786 623.682C39.91 624.002 41.5195 623.362 42.968 621.922C55.3611 608.638 44.7385 580.311 24.9417 541.741C9.65155 511.813 -9.66235 489.567 -21.0897 489.087C-23.6649 488.927 -25.5963 490.048 -27.0449 492.128Z" fill="#101720"/>
<path d="M54.2367 508.452C58.0995 510.533 61.1575 512.934 63.4108 516.935C65.6641 521.096 67.5955 539.18 67.4346 558.385C56.651 554.224 53.7539 527.817 54.2367 508.452Z" fill="#F2CDAC"/>
<path d="M67.4339 558.865C67.4339 558.865 67.4339 558.865 67.273 558.865C56.4894 554.704 53.2704 529.098 53.7532 508.452C53.7532 508.292 53.7533 508.132 54.0752 508.132C54.0752 508.132 54.397 508.132 54.558 508.132C59.0646 510.533 61.9617 513.254 63.8931 516.774C66.3073 521.256 68.2387 539.98 67.9168 558.385C67.9168 558.545 67.9168 558.705 67.7558 558.705C67.7558 558.705 67.5949 558.705 67.4339 558.705V558.865ZM54.7189 509.252C54.397 528.938 57.2941 552.944 66.9511 557.585C66.9511 537.9 65.0197 520.775 62.9274 517.094C61.1569 513.894 58.5817 511.493 54.7189 509.252Z" fill="#101720"/>
<path d="M55.5238 532.939C44.2574 531.978 39.4289 522.536 33.9566 509.092C28.6453 495.969 10.2971 478.044 -1.7741 471.483C-2.096 471.483 -2.096 471.003 -1.93505 470.843C-1.7741 470.683 -1.4522 470.522 -1.29125 470.683C10.9409 477.404 29.45 495.489 34.9223 508.772C40.2336 521.896 44.9012 531.178 55.6848 531.978C56.0067 531.978 56.1676 532.299 56.1676 532.459C56.1676 532.779 56.0067 532.939 55.6848 532.939H55.5238Z" fill="#101720"/>
<path d="M107.509 382.82C118.937 375.298 127.628 361.214 127.628 361.214C127.628 361.214 109.119 372.737 100.266 374.497" fill="#101720"/>
<path d="M107.511 383.3C107.35 383.3 107.189 383.3 107.189 383.14C107.189 382.98 107.189 382.66 107.189 382.5C115.88 376.738 123.284 366.815 126.02 362.814C121.03 365.855 107.672 373.537 100.268 374.978C99.9461 374.978 99.7852 374.978 99.7852 374.657C99.7852 374.337 99.7852 374.177 100.107 374.017C108.798 372.417 127.147 360.894 127.307 360.894C127.468 360.894 127.79 360.894 127.951 360.894C128.112 361.054 128.112 361.214 127.951 361.534C127.951 361.534 118.938 375.778 107.672 383.3C107.672 383.3 107.511 383.3 107.35 383.3H107.511Z" fill="#101720"/>
</svg>
